
<svg width="22px" height="22px" viewBox="0 0 22 22" version="1.1" xmlns="http://www.w3.org/2000/svg" xmlns:xlink="http://www.w3.org/1999/xlink">
    <defs></defs>
    <g id="Page-1" stroke="none" stroke-width="1" fill="none" fill-rule="evenodd">
        <g id="OGSURF-245-New-analytic-submission-(02)" transform="translate(-753.000000, -667.000000)">
            <g id="content" transform="translate(202.000000, 65.000000)">
                <g id="upcoming-milestones" transform="translate(433.000000, 580.000000)">
                    <g id="date-picxker" transform="translate(0.000000, 22.000000)">
                        <g id="icon_calendar" transform="translate(118.000000, 0.000000)">
                            <rect id="Rectangle" stroke="#9B9B9B" x="3.5" y="15.5" width="3" height="3"></rect>
                            <rect id="Rectangle" stroke="#9B9B9B" x="3.5" y="12.5" width="3" height="3"></rect>
                            <rect id="Rectangle" stroke="#9B9B9B" x="3.5" y="9.5" width="3" height="3"></rect>
                            <rect id="Rectangle" stroke="#9B9B9B" x="3.5" y="6.5" width="3" height="3"></rect>
                            <rect id="Rectangle" stroke="#9B9B9B" x="6.5" y="15.5" width="3" height="3"></rect>
                            <rect id="Rectangle" stroke="#9B9B9B" x="6.5" y="12.5" width="3" height="3"></rect>
                            <rect id="Rectangle" stroke="#9B9B9B" x="6.5" y="9.5" width="3" height="3"></rect>
                            <rect id="Rectangle" stroke="#9B9B9B" x="6.5" y="6.5" width="3" height="3"></rect>
                            <rect id="Rectangle" stroke="#9B9B9B" x="9.5" y="15.5" width="3" height="3"></rect>
                            <rect id="Rectangle" stroke="#9B9B9B" x="9.5" y="12.5" width="3" height="3"></rect>
                            <rect id="Rectangle" stroke="#9B9B9B" x="9.5" y="9.5" width="3" height="3"></rect>
                            <rect id="Rectangle" stroke="#9B9B9B" x="9.5" y="6.5" width="3" height="3"></rect>
                            <rect id="Rectangle" stroke="#9B9B9B" x="12.5" y="15.5" width="3" height="3"></rect>
                            <rect id="Rectangle" stroke="#9B9B9B" x="12.5" y="12.5" width="3" height="3"></rect>
                            <rect id="Rectangle" stroke="#9B9B9B" x="12.5" y="9.5" width="3" height="3"></rect>
                            <rect id="Rectangle" stroke="#9B9B9B" x="12.5" y="6.5" width="3" height="3"></rect>
                            <rect id="Rectangle" stroke="#9B9B9B" x="15.5" y="15.5" width="3" height="3"></rect>
                            <rect id="Rectangle" stroke="#9B9B9B" x="15.5" y="12.5" width="3" height="3"></rect>
                            <rect id="Rectangle" stroke="#9B9B9B" x="15.5" y="9.5" width="3" height="3"></rect>
                            <rect id="Rectangle" stroke="#9B9B9B" x="15.5" y="6.5" width="3" height="3"></rect>
                            <rect id="Rectangle" stroke="#9B9B9B" x="3.5" y="3.5" width="15" height="3"></rect>
                            <rect id="Rectangle" stroke="#979797" x="0.5" y="0.5" width="21" height="21"></rect>
                        </g>
                    </g>
                </g>
            </g>
        </g>
    </g>
</svg>
