<?xml version="1.0" encoding="UTF-8"?>
<svg width="1200px" height="207px" viewBox="0 0 1200 207" version="1.1" xmlns="http://www.w3.org/2000/svg" xmlns:xlink="http://www.w3.org/1999/xlink">
    <!-- Generator: Sketch 49.2 (51160) - http://www.bohemiancoding.com/sketch -->
    <title>Group 4</title>
    <desc>Created with Sketch.</desc>
    <defs>
        <path d="M2,0 L118,0 C119.104569,-2.02906125e-16 120,0.8954305 120,2 L120,150 L0,150 L0,2 C-1.3527075e-16,0.8954305 0.8954305,2.02906125e-16 2,0 Z" id="path-1"></path>
        <polygon id="path-2" points="3.2682689e-13 -3.99680289e-15 120 -3.99680289e-15 120 109 -1.01307851e-15 109"></polygon>
        <path d="M2,0 L118,0 C119.104569,-2.02906125e-16 120,0.8954305 120,2 L120,150 L0,150 L0,2 C-1.3527075e-16,0.8954305 0.8954305,2.02906125e-16 2,0 Z" id="path-4"></path>
        <polygon id="path-5" points="3.2682689e-13 -3.99680289e-15 120 -3.99680289e-15 120 109 -1.01307851e-15 109"></polygon>
        <path d="M2,0 L118,0 C119.104569,-2.02906125e-16 120,0.8954305 120,2 L120,150 L0,150 L0,2 C-1.3527075e-16,0.8954305 0.8954305,2.02906125e-16 2,0 Z" id="path-7"></path>
        <polygon id="path-8" points="3.2682689e-13 -3.99680289e-15 120 -3.99680289e-15 120 109 -1.01307851e-15 109"></polygon>
        <path d="M2,0 L118,0 C119.104569,-2.02906125e-16 120,0.8954305 120,2 L120,150 L0,150 L0,2 C-1.3527075e-16,0.8954305 0.8954305,2.02906125e-16 2,0 Z" id="path-10"></path>
        <polygon id="path-11" points="3.2682689e-13 -3.99680289e-15 120 -3.99680289e-15 120 109 -1.01307851e-15 109"></polygon>
        <path d="M2,0 L118,0 C119.104569,-2.02906125e-16 120,0.8954305 120,2 L120,150 L0,150 L0,2 C-1.3527075e-16,0.8954305 0.8954305,2.02906125e-16 2,0 Z" id="path-13"></path>
        <polygon id="path-14" points="3.2682689e-13 -3.99680289e-15 120 -3.99680289e-15 120 109 -1.01307851e-15 109"></polygon>
        <path d="M2,0 L118,0 C119.104569,-2.02906125e-16 120,0.8954305 120,2 L120,150 L0,150 L0,2 C-1.3527075e-16,0.8954305 0.8954305,2.02906125e-16 2,0 Z" id="path-16"></path>
        <polygon id="path-17" points="3.2682689e-13 -3.99680289e-15 120 -3.99680289e-15 120 109 -1.01307851e-15 109"></polygon>
        <path d="M2,0 L118,0 C119.104569,-2.02906125e-16 120,0.8954305 120,2 L120,150 L0,150 L0,2 C-1.3527075e-16,0.8954305 0.8954305,2.02906125e-16 2,0 Z" id="path-19"></path>
        <polygon id="path-20" points="3.2682689e-13 -3.99680289e-15 120 -3.99680289e-15 120 109 -1.01307851e-15 109"></polygon>
        <path d="M2,0 L118,0 C119.104569,-2.02906125e-16 120,0.8954305 120,2 L120,150 L0,150 L0,2 C-1.3527075e-16,0.8954305 0.8954305,2.02906125e-16 2,0 Z" id="path-22"></path>
        <polygon id="path-23" points="3.2682689e-13 -3.99680289e-15 120 -3.99680289e-15 120 109 -1.01307851e-15 109"></polygon>
        <path d="M2,0 L118,0 C119.104569,-2.02906125e-16 120,0.8954305 120,2 L120,150 L0,150 L0,2 C-1.3527075e-16,0.8954305 0.8954305,2.02906125e-16 2,0 Z" id="path-25"></path>
        <polygon id="path-26" points="3.2682689e-13 -3.99680289e-15 120 -3.99680289e-15 120 109 -1.01307851e-15 109"></polygon>
        <path d="M2,0 L118,0 C119.104569,-2.02906125e-16 120,0.8954305 120,2 L120,150 L0,150 L0,2 C-1.3527075e-16,0.8954305 0.8954305,2.02906125e-16 2,0 Z" id="path-28"></path>
        <polygon id="path-29" points="3.2682689e-13 -3.99680289e-15 120 -3.99680289e-15 120 109 -1.01307851e-15 109"></polygon>
    </defs>
    <g id="Components" stroke="none" stroke-width="1" fill="none" fill-rule="evenodd">
        <g id="Color-Palettes" transform="translate(-200.000000, -3084.000000)">
            <g id="Group-4" transform="translate(200.000000, 3079.000000)">
                <g id="Group-5" transform="translate(0.000000, 62.000000)">
                    <g id="Swatch">
                        <g id="Group-2">
                            <g id="Rectangle-4">
                                <use fill="#F8F8F8" fill-rule="evenodd" xlink:href="#path-1"></use>
                                <path stroke="#E9E9E9" stroke-width="1" d="M0.5,149.5 L119.5,149.5 L119.5,2 C119.5,1.17157288 118.828427,0.5 118,0.5 L2,0.5 C1.17157288,0.5 0.5,1.17157288 0.5,2 L0.5,149.5 Z"></path>
                            </g>
                            <g id="Rectangle">
                                <mask id="mask-3" fill="white">
                                    <use xlink:href="#path-2"></use>
                                </mask>
                                <use id="Mask" fill="#EBE594" xlink:href="#path-2"></use>
                                <g id="/Cyan/01-$Cyan1" mask="url(#mask-3)" fill="#A8DFFC">
                                    <rect id="Rectangle" x="0" y="0" width="120" height="109"></rect>
                                </g>
                            </g>
                            <g id="Group" transform="translate(1.000000, 109.000000)">
                                <path d="M0,0 L118,0 L118,39 C118,39.5522847 117.552285,40 117,40 L1,40 C0.44771525,40 6.76353751e-17,39.5522847 0,39 L0,0 Z" id="Rectangle-2" fill="#F8F8F8"></path>
                                <text id="$color_num" font-family="GEInspiraSans, GE Inspira Sans" font-size="12" font-weight="normal" fill="#000000">
                                    <tspan x="38.156" y="24">$cyan_1</tspan>
                                </text>
                            </g>
                        </g>
                    </g>
                    <g id="Swatch" transform="translate(120.000000, 0.000000)">
                        <g id="Group-2">
                            <g id="Rectangle-4">
                                <use fill="#F8F8F8" fill-rule="evenodd" xlink:href="#path-4"></use>
                                <path stroke="#E9E9E9" stroke-width="1" d="M0.5,149.5 L119.5,149.5 L119.5,2 C119.5,1.17157288 118.828427,0.5 118,0.5 L2,0.5 C1.17157288,0.5 0.5,1.17157288 0.5,2 L0.5,149.5 Z"></path>
                            </g>
                            <g id="Rectangle">
                                <mask id="mask-6" fill="white">
                                    <use xlink:href="#path-5"></use>
                                </mask>
                                <use id="Mask" fill="#EBE594" xlink:href="#path-5"></use>
                                <g id="/Cyan/02-$Cyan2" mask="url(#mask-6)" fill="#97D7FB">
                                    <rect id="Rectangle" x="0" y="0" width="120" height="109"></rect>
                                </g>
                            </g>
                            <g id="Group" transform="translate(1.000000, 109.000000)">
                                <path d="M0,0 L118,0 L118,39 C118,39.5522847 117.552285,40 117,40 L1,40 C0.44771525,40 6.76353751e-17,39.5522847 0,39 L0,0 Z" id="Rectangle-2" fill="#F8F8F8"></path>
                                <text id="$color_num" font-family="GEInspiraSans, GE Inspira Sans" font-size="12" font-weight="normal" fill="#000000">
                                    <tspan x="38.156" y="24">$cyan_2</tspan>
                                </text>
                            </g>
                        </g>
                    </g>
                    <g id="Swatch" transform="translate(240.000000, 0.000000)">
                        <g id="Group-2">
                            <g id="Rectangle-4">
                                <use fill="#F8F8F8" fill-rule="evenodd" xlink:href="#path-7"></use>
                                <path stroke="#E9E9E9" stroke-width="1" d="M0.5,149.5 L119.5,149.5 L119.5,2 C119.5,1.17157288 118.828427,0.5 118,0.5 L2,0.5 C1.17157288,0.5 0.5,1.17157288 0.5,2 L0.5,149.5 Z"></path>
                            </g>
                            <g id="Rectangle">
                                <mask id="mask-9" fill="white">
                                    <use xlink:href="#path-8"></use>
                                </mask>
                                <use id="Mask" fill="#EBE594" xlink:href="#path-8"></use>
                                <g id="/Cyan/03-$Cyan3" mask="url(#mask-9)" fill="#89D1FA">
                                    <rect id="Rectangle" x="0" y="0" width="120" height="109"></rect>
                                </g>
                            </g>
                            <g id="Group" transform="translate(1.000000, 109.000000)">
                                <path d="M0,0 L118,0 L118,39 C118,39.5522847 117.552285,40 117,40 L1,40 C0.44771525,40 6.76353751e-17,39.5522847 0,39 L0,0 Z" id="Rectangle-2" fill="#F8F8F8"></path>
                                <text id="$color_num" font-family="GEInspiraSans, GE Inspira Sans" font-size="12" font-weight="normal" fill="#000000">
                                    <tspan x="38.156" y="24">$cyan_3</tspan>
                                </text>
                            </g>
                        </g>
                    </g>
                    <g id="Swatch" transform="translate(360.000000, 0.000000)">
                        <g id="Group-2">
                            <g id="Rectangle-4">
                                <use fill="#F8F8F8" fill-rule="evenodd" xlink:href="#path-10"></use>
                                <path stroke="#E9E9E9" stroke-width="1" d="M0.5,149.5 L119.5,149.5 L119.5,2 C119.5,1.17157288 118.828427,0.5 118,0.5 L2,0.5 C1.17157288,0.5 0.5,1.17157288 0.5,2 L0.5,149.5 Z"></path>
                            </g>
                            <g id="Rectangle">
                                <mask id="mask-12" fill="white">
                                    <use xlink:href="#path-11"></use>
                                </mask>
                                <use id="Mask" fill="#EBE594" xlink:href="#path-11"></use>
                                <g id="/Cyan/04-$Cyan4" mask="url(#mask-12)" fill="#72C7FA">
                                    <rect id="Rectangle" x="0" y="0" width="120" height="109"></rect>
                                </g>
                            </g>
                            <g id="Group" transform="translate(1.000000, 109.000000)">
                                <path d="M0,0 L118,0 L118,39 C118,39.5522847 117.552285,40 117,40 L1,40 C0.44771525,40 6.76353751e-17,39.5522847 0,39 L0,0 Z" id="Rectangle-2" fill="#F8F8F8"></path>
                                <text id="$color_num" font-family="GEInspiraSans, GE Inspira Sans" font-size="12" font-weight="normal" fill="#000000">
                                    <tspan x="38.156" y="24">$cyan_4</tspan>
                                </text>
                            </g>
                        </g>
                    </g>
                    <g id="Swatch" transform="translate(480.000000, 0.000000)">
                        <g id="Group-2">
                            <g id="Rectangle-4">
                                <use fill="#F8F8F8" fill-rule="evenodd" xlink:href="#path-13"></use>
                                <path stroke="#E9E9E9" stroke-width="1" d="M0.5,149.5 L119.5,149.5 L119.5,2 C119.5,1.17157288 118.828427,0.5 118,0.5 L2,0.5 C1.17157288,0.5 0.5,1.17157288 0.5,2 L0.5,149.5 Z"></path>
                            </g>
                            <g id="Rectangle">
                                <mask id="mask-15" fill="white">
                                    <use xlink:href="#path-14"></use>
                                </mask>
                                <use id="Mask" fill="#EBE594" xlink:href="#path-14"></use>
                                <g id="/Cyan/05-$Cyan5" mask="url(#mask-15)" fill="#5FBCF8">
                                    <rect id="Rectangle" x="0" y="0" width="120" height="109"></rect>
                                </g>
                            </g>
                            <g id="Group" transform="translate(1.000000, 109.000000)">
                                <path d="M0,0 L118,0 L118,39 C118,39.5522847 117.552285,40 117,40 L1,40 C0.44771525,40 6.76353751e-17,39.5522847 0,39 L0,0 Z" id="Rectangle-2" fill="#F8F8F8"></path>
                                <text id="$color_num" font-family="GEInspiraSans, GE Inspira Sans" font-size="12" font-weight="normal" fill="#000000">
                                    <tspan x="38.156" y="24">$cyan_5</tspan>
                                </text>
                            </g>
                        </g>
                    </g>
                    <g id="Swatch" transform="translate(600.000000, 0.000000)">
                        <g id="Group-2">
                            <g id="Rectangle-4">
                                <use fill="#F8F8F8" fill-rule="evenodd" xlink:href="#path-16"></use>
                                <path stroke="#E9E9E9" stroke-width="1" d="M0.5,149.5 L119.5,149.5 L119.5,2 C119.5,1.17157288 118.828427,0.5 118,0.5 L2,0.5 C1.17157288,0.5 0.5,1.17157288 0.5,2 L0.5,149.5 Z"></path>
                            </g>
                            <g id="Rectangle">
                                <mask id="mask-18" fill="white">
                                    <use xlink:href="#path-17"></use>
                                </mask>
                                <use id="Mask" fill="#EBE594" xlink:href="#path-17"></use>
                                <g id="/Cyan/06-$Cyan6" mask="url(#mask-18)" fill="#4CB0F6">
                                    <rect id="Rectangle" x="0" y="0" width="120" height="109"></rect>
                                </g>
                            </g>
                            <g id="Group" transform="translate(1.000000, 109.000000)">
                                <path d="M0,0 L118,0 L118,39 C118,39.5522847 117.552285,40 117,40 L1,40 C0.44771525,40 6.76353751e-17,39.5522847 0,39 L0,0 Z" id="Rectangle-2" fill="#F8F8F8"></path>
                                <text id="$color_num" font-family="GEInspiraSans, GE Inspira Sans" font-size="12" font-weight="normal" fill="#000000">
                                    <tspan x="38.156" y="24">$cyan_6</tspan>
                                </text>
                            </g>
                        </g>
                    </g>
                    <g id="Swatch" transform="translate(720.000000, 0.000000)">
                        <g id="Group-2">
                            <g id="Rectangle-4">
                                <use fill="#F8F8F8" fill-rule="evenodd" xlink:href="#path-19"></use>
                                <path stroke="#E9E9E9" stroke-width="1" d="M0.5,149.5 L119.5,149.5 L119.5,2 C119.5,1.17157288 118.828427,0.5 118,0.5 L2,0.5 C1.17157288,0.5 0.5,1.17157288 0.5,2 L0.5,149.5 Z"></path>
                            </g>
                            <g id="Rectangle">
                                <mask id="mask-21" fill="white">
                                    <use xlink:href="#path-20"></use>
                                </mask>
                                <use id="Mask" fill="#EBE594" xlink:href="#path-20"></use>
                                <g id="/Cyan/07-$Cyan7" mask="url(#mask-21)" fill="#3F92CB">
                                    <rect id="Rectangle" x="0" y="0" width="120" height="109"></rect>
                                </g>
                            </g>
                            <g id="Group" transform="translate(1.000000, 109.000000)">
                                <path d="M0,0 L118,0 L118,39 C118,39.5522847 117.552285,40 117,40 L1,40 C0.44771525,40 6.76353751e-17,39.5522847 0,39 L0,0 Z" id="Rectangle-2" fill="#F8F8F8"></path>
                                <text id="$color_num" font-family="GEInspiraSans, GE Inspira Sans" font-size="12" font-weight="normal" fill="#000000">
                                    <tspan x="38.156" y="24">$cyan_7</tspan>
                                </text>
                            </g>
                        </g>
                    </g>
                    <g id="Swatch" transform="translate(840.000000, 0.000000)">
                        <g id="Group-2">
                            <g id="Rectangle-4">
                                <use fill="#F8F8F8" fill-rule="evenodd" xlink:href="#path-22"></use>
                                <path stroke="#E9E9E9" stroke-width="1" d="M0.5,149.5 L119.5,149.5 L119.5,2 C119.5,1.17157288 118.828427,0.5 118,0.5 L2,0.5 C1.17157288,0.5 0.5,1.17157288 0.5,2 L0.5,149.5 Z"></path>
                            </g>
                            <g id="Rectangle">
                                <mask id="mask-24" fill="white">
                                    <use xlink:href="#path-23"></use>
                                </mask>
                                <use id="Mask" fill="#EBE594" xlink:href="#path-23"></use>
                                <g id="/Cyan/08-$Cyan8" mask="url(#mask-24)" fill="#2F6A93">
                                    <rect id="Rectangle" x="0" y="0" width="120" height="109"></rect>
                                </g>
                            </g>
                            <g id="Group" transform="translate(1.000000, 109.000000)">
                                <path d="M0,0 L118,0 L118,39 C118,39.5522847 117.552285,40 117,40 L1,40 C0.44771525,40 6.76353751e-17,39.5522847 0,39 L0,0 Z" id="Rectangle-2" fill="#F8F8F8"></path>
                                <text id="$color_num" font-family="GEInspiraSans, GE Inspira Sans" font-size="12" font-weight="normal" fill="#000000">
                                    <tspan x="38.156" y="24">$cyan_8</tspan>
                                </text>
                            </g>
                        </g>
                    </g>
                    <g id="Swatch" transform="translate(960.000000, 0.000000)">
                        <g id="Group-2">
                            <g id="Rectangle-4">
                                <use fill="#F8F8F8" fill-rule="evenodd" xlink:href="#path-25"></use>
                                <path stroke="#E9E9E9" stroke-width="1" d="M0.5,149.5 L119.5,149.5 L119.5,2 C119.5,1.17157288 118.828427,0.5 118,0.5 L2,0.5 C1.17157288,0.5 0.5,1.17157288 0.5,2 L0.5,149.5 Z"></path>
                            </g>
                            <g id="Rectangle">
                                <mask id="mask-27" fill="white">
                                    <use xlink:href="#path-26"></use>
                                </mask>
                                <use id="Mask" fill="#EBE594" xlink:href="#path-26"></use>
                                <g id="/Cyan/09-$Cyan9" mask="url(#mask-27)" fill="#255474">
                                    <rect id="Rectangle" x="0" y="0" width="120" height="109"></rect>
                                </g>
                            </g>
                            <g id="Group" transform="translate(1.000000, 109.000000)">
                                <path d="M0,0 L118,0 L118,39 C118,39.5522847 117.552285,40 117,40 L1,40 C0.44771525,40 6.76353751e-17,39.5522847 0,39 L0,0 Z" id="Rectangle-2" fill="#F8F8F8"></path>
                                <text id="$color_num" font-family="GEInspiraSans, GE Inspira Sans" font-size="12" font-weight="normal" fill="#000000">
                                    <tspan x="38.156" y="24">$cyan_9</tspan>
                                </text>
                            </g>
                        </g>
                    </g>
                    <g id="Swatch" transform="translate(1080.000000, 0.000000)">
                        <g id="Group-2">
                            <g id="Rectangle-4">
                                <use fill="#F8F8F8" fill-rule="evenodd" xlink:href="#path-28"></use>
                                <path stroke="#E9E9E9" stroke-width="1" d="M0.5,149.5 L119.5,149.5 L119.5,2 C119.5,1.17157288 118.828427,0.5 118,0.5 L2,0.5 C1.17157288,0.5 0.5,1.17157288 0.5,2 L0.5,149.5 Z"></path>
                            </g>
                            <g id="Rectangle">
                                <mask id="mask-30" fill="white">
                                    <use xlink:href="#path-29"></use>
                                </mask>
                                <use id="Mask" fill="#EBE594" xlink:href="#path-29"></use>
                                <g id="/Cyan/10-$Cyan10" mask="url(#mask-30)" fill="#1C3E56">
                                    <rect id="Rectangle" x="0" y="0" width="120" height="109"></rect>
                                </g>
                            </g>
                            <g id="Group" transform="translate(1.000000, 109.000000)">
                                <path d="M0,0 L118,0 L118,39 C118,39.5522847 117.552285,40 117,40 L1,40 C0.44771525,40 6.76353751e-17,39.5522847 0,39 L0,0 Z" id="Rectangle-2" fill="#F8F8F8"></path>
                                <text id="$color_num" font-family="GEInspiraSans, GE Inspira Sans" font-size="12" font-weight="normal" fill="#000000">
                                    <tspan x="34.964" y="24">$cyan_10</tspan>
                                </text>
                            </g>
                        </g>
                    </g>
                </g>
                <text id="CYANS" font-family="GEInspiraSans, GE Inspira Sans" font-size="24" font-weight="normal" fill="#D96CA3">
                    <tspan x="0" y="22">CYANS</tspan>
                </text>
            </g>
        </g>
    </g>
</svg>