
<svg width="16px" height="16px" viewBox="0 0 16 16" version="1.1" xmlns="http://www.w3.org/2000/svg" xmlns:xlink="http://www.w3.org/1999/xlink">
    <defs></defs>
    <g id="stories" stroke="none" stroke-width="1" fill="none" fill-rule="evenodd">
        <g id="dashboard-(data-table-&gt;-full-screen)" transform="translate(-1230.000000, -91.000000)" fill="#8BD6FF">
            <g id="action-bar" transform="translate(0.000000, 70.000000)">
                <path d="M1237.71429,29.2142857 L1237.71429,33.7142857 C1237.71429,33.8883937 1237.65067,34.0390619 1237.52344,34.1662946 C1237.3962,34.2935274 1237.24554,34.3571429 1237.07143,34.3571429 C1236.89732,34.3571429 1236.74665,34.2935274 1236.61942,34.1662946 L1235.17299,32.7198661 L1231.83817,36.0546875 C1231.77121,36.1216521 1231.6942,36.1551339 1231.60714,36.1551339 C1231.52009,36.1551339 1231.44308,36.1216521 1231.37612,36.0546875 L1230.23103,34.9095982 C1230.16406,34.8426336 1230.13058,34.7656254 1230.13058,34.6785714 C1230.13058,34.5915174 1230.16406,34.5145093 1230.23103,34.4475446 L1233.56585,31.1127232 L1232.11942,29.6662946 C1231.99219,29.5390619 1231.92857,29.3883937 1231.92857,29.2142857 C1231.92857,29.0401777 1231.99219,28.8895096 1232.11942,28.7622768 C1232.24665,28.635044 1232.39732,28.5714286 1232.57143,28.5714286 L1237.07143,28.5714286 C1237.24554,28.5714286 1237.3962,28.635044 1237.52344,28.7622768 C1237.65067,28.8895096 1237.71429,29.0401777 1237.71429,29.2142857 Z M1245.29799,22.4642857 C1245.29799,22.5513397 1245.26451,22.6283479 1245.19754,22.6953125 L1241.86272,26.0301339 L1243.30915,27.4765625 C1243.43638,27.6037953 1243.5,27.7544634 1243.5,27.9285714 C1243.5,28.1026794 1243.43638,28.2533476 1243.30915,28.3805804 C1243.18192,28.5078131 1243.03125,28.5714286 1242.85714,28.5714286 L1238.35714,28.5714286 C1238.18303,28.5714286 1238.03237,28.5078131 1237.90513,28.3805804 C1237.7779,28.2533476 1237.71429,28.1026794 1237.71429,27.9285714 L1237.71429,23.4285714 C1237.71429,23.2544634 1237.7779,23.1037953 1237.90513,22.9765625 C1238.03237,22.8493297 1238.18303,22.7857143 1238.35714,22.7857143 C1238.53125,22.7857143 1238.68192,22.8493297 1238.80915,22.9765625 L1240.25558,24.4229911 L1243.5904,21.0881696 C1243.65737,21.021205 1243.73437,20.9877232 1243.82143,20.9877232 C1243.90848,20.9877232 1243.98549,21.021205 1244.05246,21.0881696 L1245.19754,22.2332589 C1245.26451,22.3002235 1245.29799,22.3772317 1245.29799,22.4642857 Z" id="contract-icon"></path>
            </g>
        </g>
    </g>
</svg>
