
<svg width="16px" height="16px" viewBox="0 0 16 16" version="1.1" xmlns="http://www.w3.org/2000/svg" xmlns:xlink="http://www.w3.org/1999/xlink">
    <defs></defs>
    <g id="stories" stroke="none" stroke-width="1" fill="none" fill-rule="evenodd">
        <g id="dashboard" transform="translate(-741.000000, -461.000000)" fill="#8BD6FF">
            <path d="M749.274991,461.455219 C750.674551,461.455219 751.965275,461.800082 753.147201,462.489817 C754.329126,463.179553 755.264943,464.115369 755.954678,465.297295 C756.644414,466.479221 756.989276,467.769944 756.989276,469.169505 C756.989276,470.569065 756.644414,471.859789 755.954678,473.041715 C755.264943,474.22364 754.329126,475.159457 753.147201,475.849192 C751.965275,476.538928 750.674551,476.88379 749.274991,476.88379 C747.87543,476.88379 746.584706,476.538928 745.402781,475.849192 C744.220855,475.159457 743.285039,474.22364 742.595303,473.041715 C741.905568,471.859789 741.560705,470.569065 741.560705,469.169505 C741.560705,467.769944 741.905568,466.479221 742.595303,465.297295 C743.285039,464.115369 744.220855,463.179553 745.402781,462.489817 C746.584706,461.800082 747.87543,461.455219 749.274991,461.455219 Z M751.799856,466.87865 C751.798632,466.878898 751.797412,466.879124 751.796196,466.879326 C751.797388,466.879326 751.798593,466.879194 751.799811,466.878929 L751.799856,466.87865 Z M751.799811,466.878929 C751.812283,466.876215 751.826145,466.859606 751.841397,466.829103 C751.858138,466.795621 751.874879,466.758791 751.89162,466.718612 C751.908361,466.678433 751.92008,466.654996 751.926776,466.648299 C751.966955,466.601424 752.040615,466.551201 752.147759,466.49763 C752.241509,466.457451 752.415614,466.417273 752.67008,466.377094 C752.897512,466.323581 753.068145,466.360272 753.181985,466.48717 C753.169598,466.473328 753.201534,466.429937 753.277781,466.357005 C753.35479,466.283344 753.403339,466.243166 753.423428,466.236469 C753.443518,466.223076 753.49374,466.208009 753.574098,466.191268 C753.654455,466.174527 753.704678,466.149416 753.724768,466.115933 L753.744857,465.894951 C753.664499,465.901648 753.605906,465.87821 753.569076,465.824639 C753.532426,465.77133 753.510696,465.701446 753.503885,465.614983 C753.498629,465.633773 753.478834,465.658742 753.443518,465.694058 C753.443518,465.647183 753.428451,465.620398 753.398317,465.613701 C753.368183,465.607005 753.329678,465.610353 753.282803,465.623746 C753.235928,465.637139 753.205794,465.640487 753.192401,465.63379 C753.125437,465.613701 753.075214,465.58859 753.041732,465.558456 C753.00825,465.528322 752.981464,465.473077 752.961375,465.392719 C752.941285,465.312362 752.927893,465.262139 752.921196,465.242049 C752.907803,465.208567 752.875995,465.171737 752.825772,465.131558 C752.775549,465.09138 752.743741,465.057898 752.730348,465.031112 C752.723651,465.017719 752.715281,464.999304 752.705236,464.975866 C752.695192,464.952429 752.685147,464.930666 752.675102,464.910576 C752.665058,464.890487 752.651665,464.872072 752.634924,464.855331 C752.618183,464.83859 752.599768,464.830219 752.579678,464.830219 C752.559589,464.830219 752.536152,464.84696 752.509366,464.880442 C752.48258,464.913925 752.457469,464.947406 752.434031,464.980889 C752.410593,465.014371 752.395526,465.031112 752.38883,465.031112 C752.368741,465.017719 752.348652,465.012697 752.328562,465.016045 C752.308473,465.019393 752.293406,465.022741 752.283361,465.02609 C752.273317,465.029438 752.25825,465.039482 752.23816,465.056224 C752.218071,465.072965 752.20133,465.084683 752.187937,465.09138 C752.167848,465.104773 752.139388,465.114817 752.102558,465.121514 C752.066289,465.128108 752.038138,465.134702 752.018103,465.141297 C752.117555,465.107446 752.113297,465.070923 752.007134,465.031112 C751.940205,465.004341 751.886656,464.994292 751.846485,465.000967 C751.907583,464.972737 751.931617,464.933047 751.921754,464.880442 C751.911709,464.826871 751.88325,464.779996 751.836375,464.739817 L751.886598,464.739817 C751.879901,464.713031 751.851442,464.684572 751.801218,464.654438 C751.750995,464.624304 751.692402,464.595844 751.625437,464.569058 C751.558473,464.542273 751.514946,464.522183 751.494857,464.50879 C751.441285,464.475308 751.327447,464.4435 751.153339,464.413366 C750.979231,464.383232 750.868741,464.381558 750.821866,464.408344 C750.788383,464.448523 750.773317,464.483679 750.776665,464.513813 C750.780013,464.543947 750.793406,464.590821 750.816843,464.654438 C750.840281,464.718054 750.852,464.759906 750.852,464.779996 C750.858696,464.820175 750.840281,464.863701 750.796754,464.910576 C750.753227,464.957451 750.731464,464.99763 750.731464,465.031112 C750.731464,465.077987 750.778338,465.129884 750.872089,465.186804 C750.965839,465.243724 750.999321,465.31571 750.972535,465.402764 C750.952446,465.456335 750.898875,465.509906 750.811821,465.563478 C750.724767,465.61705 750.671196,465.657228 750.651107,465.684014 C750.617625,465.737585 750.612602,465.799527 750.63604,465.86984 C750.659477,465.940152 750.694633,465.995397 750.741509,466.035576 C750.754902,466.048969 750.759924,466.062362 750.756576,466.075755 C750.753227,466.089148 750.741509,466.104215 750.721419,466.120956 C750.70133,466.137697 750.682915,466.15109 750.666174,466.161134 C750.649433,466.171179 750.627669,466.182898 750.600884,466.19629 L750.57075,466.21638 C750.497089,466.249862 750.428451,466.229773 750.364834,466.156112 C750.301218,466.082451 750.256018,465.995398 750.229232,465.894951 C750.182357,465.72754 750.128786,465.627094 750.068518,465.593612 C749.914499,465.54004 749.817402,465.543388 749.777223,465.603657 C749.743741,465.516603 749.606465,465.42955 749.365393,465.342496 C749.198029,465.282245 749.003897,465.268843 748.782993,465.302289 C748.822979,465.294798 748.822654,465.244633 748.782803,465.151648 C748.735928,465.051201 748.672313,465.011023 748.591955,465.031112 C748.612044,464.990933 748.625437,464.93234 748.632134,464.855331 C748.63883,464.778321 748.642178,464.733121 748.642178,464.719728 C748.662268,464.632674 748.702446,464.555666 748.762714,464.488701 C748.76941,464.482005 748.792848,464.453545 748.833026,464.403322 C748.873205,464.353098 748.905013,464.307898 748.928451,464.267719 C748.951339,464.228482 748.953472,464.208404 748.93485,464.207484 C749.168271,464.234144 749.335385,464.197281 749.435705,464.09696 C749.469187,464.063478 749.507691,464.006559 749.551218,463.926201 C749.594745,463.845844 749.629901,463.788925 749.656687,463.755442 C749.716955,463.715264 749.76383,463.696849 749.797312,463.700197 C749.830794,463.703545 749.879343,463.72196 749.942959,463.755442 C750.006576,463.788925 750.055125,463.805665 750.088607,463.805665 C750.182357,463.812362 750.234254,463.775532 750.244299,463.695174 C750.254343,463.614817 750.229232,463.547853 750.168964,463.494282 C750.249322,463.500978 750.259366,463.444059 750.199098,463.323523 C750.172312,463.276647 750.145527,463.246514 750.118741,463.233121 C750.038383,463.206335 749.947982,463.223076 749.847535,463.283344 C749.794233,463.309995 749.800594,463.336646 749.866618,463.363297 C749.85843,463.359787 749.826919,463.395139 749.772201,463.46917 C749.715281,463.546179 749.660036,463.604772 749.606464,463.644951 C749.552892,463.68513 749.499321,463.668389 749.44575,463.594728 C749.439053,463.588032 749.420638,463.542831 749.390504,463.459125 C749.36037,463.37542 749.328562,463.330219 749.29508,463.323523 C749.241539,463.323523 749.188,463.373687 749.134459,463.474018 C749.153151,463.418867 749.115988,463.369579 749.023875,463.323523 C748.930124,463.276647 748.849768,463.249862 748.782803,463.243165 C748.910036,463.162808 748.883251,463.072407 748.702446,462.97196 C748.655571,462.945174 748.586933,462.928433 748.496531,462.921737 C748.406129,462.91504 748.340839,462.928433 748.30066,462.961915 C748.267178,463.008791 748.248763,463.047295 748.245415,463.077429 C748.242067,463.107563 748.258808,463.134348 748.295638,463.157786 C748.332469,463.181224 748.367625,463.199639 748.401107,463.213032 C748.434589,463.226424 748.473093,463.239817 748.51662,463.25321 C748.560147,463.266603 748.588607,463.276648 748.602,463.283344 C748.69575,463.350309 748.722536,463.397183 748.682357,463.423969 C748.668964,463.430666 748.640504,463.442384 748.596977,463.459125 C748.55345,463.475866 748.514946,463.490933 748.481464,463.504326 C748.447982,463.517719 748.427893,463.531112 748.421196,463.544505 C748.401107,463.571291 748.401107,463.618165 748.421196,463.68513 C748.441285,463.752094 748.434589,463.798969 748.401107,463.825755 C748.367625,463.792272 748.337491,463.733679 748.310705,463.649974 C748.285527,463.571291 748.263307,463.517757 748.244046,463.489367 C748.281866,463.545731 748.196815,463.563961 747.989276,463.544505 L747.88883,463.53446 C747.862044,463.53446 747.808473,463.541157 747.728116,463.554549 C747.647758,463.567942 747.57912,463.571291 747.522201,463.564594 C747.465281,463.557898 747.42008,463.531112 747.386598,463.484237 C747.359812,463.430665 747.359812,463.363702 747.386598,463.283344 C747.393261,463.25669 747.406555,463.249928 747.426479,463.263058 C747.395422,463.239208 747.360278,463.208681 747.316285,463.167831 C747.26941,463.124304 747.235928,463.095844 747.215839,463.082451 C746.907802,463.182898 746.593073,463.320174 746.271643,463.494282 C746.311821,463.500978 746.351999,463.49763 746.392178,463.484237 C746.425661,463.470844 746.469187,463.449081 746.522759,463.418947 C746.57633,463.388813 746.609812,463.370398 746.623205,463.363701 C746.850885,463.269951 746.991508,463.246513 747.04508,463.293389 L747.095303,463.243165 C747.189054,463.350309 747.256017,463.434013 747.296196,463.494282 C747.249321,463.467496 747.148875,463.464148 746.994857,463.484237 C746.860928,463.524416 746.787268,463.564594 746.773875,463.604773 C746.82075,463.68513 746.837491,463.745397 746.824098,463.785576 C746.797312,463.765487 746.758808,463.732005 746.708584,463.68513 C746.658361,463.638255 746.609812,463.601425 746.562937,463.574639 C746.516062,463.547853 746.465839,463.531112 746.412268,463.524415 C746.305124,463.524415 746.231464,463.527764 746.191285,463.53446 C745.213602,464.070177 744.426779,464.813473 743.830794,465.764371 C743.87767,465.811246 743.917848,465.838032 743.95133,465.844728 C743.978116,465.851424 743.994857,465.881558 744.001553,465.93513 C744.00825,465.988701 744.01662,466.025531 744.026665,466.045621 C744.03671,466.06571 744.075214,466.055666 744.142178,466.015487 C744.202446,466.069059 744.212491,466.132674 744.172312,466.206335 C744.179009,466.199639 744.326329,466.29004 744.614276,466.47754 C744.741509,466.59138 744.811821,466.661692 744.825214,466.688478 C744.845303,466.762139 744.811822,466.822406 744.724768,466.869282 C744.718071,466.855889 744.687937,466.825755 744.634366,466.77888 C744.580794,466.732005 744.55066,466.718612 744.543964,466.738701 C744.523875,466.772184 744.525549,466.834125 744.548986,466.924527 C744.572424,467.014929 744.60758,467.056782 744.654455,467.050085 C744.60758,467.050085 744.575772,467.103656 744.559031,467.210799 C744.54229,467.317943 744.533919,467.436803 744.533919,467.567384 C744.533919,467.697965 744.530571,467.776648 744.523875,467.803433 L744.543964,467.813478 C744.523875,467.893836 744.54229,468.009348 744.599209,468.160018 C744.656129,468.310689 744.728115,468.375978 744.815169,468.355889 C744.728115,468.375978 744.795079,468.51995 745.016062,468.787808 C745.056241,468.84138 745.083026,468.871514 745.096419,468.87821 C745.116509,468.891603 745.156687,468.916714 745.216955,468.953545 C745.277223,468.990376 745.327446,469.023857 745.367625,469.053991 C745.407803,469.084125 745.441285,469.119281 745.468071,469.15946 C745.494857,469.192942 745.528339,469.268277 745.568518,469.385465 C745.608696,469.502653 745.655571,469.581335 745.709143,469.621514 C745.69575,469.661692 745.727557,469.728656 745.804567,469.822407 C745.881576,469.916157 745.916732,469.993165 745.910035,470.053433 C745.903339,470.053433 745.894968,470.056782 745.884924,470.063478 C745.874879,470.070174 745.866509,470.073523 745.859812,470.073523 C745.879902,470.120398 745.931798,470.167272 746.015504,470.214148 C746.09921,470.261023 746.151107,470.304549 746.171196,470.344728 C746.177893,470.364817 746.184589,470.398299 746.191285,470.445174 C746.197982,470.49205 746.208026,470.52888 746.221419,470.555665 C746.234812,470.582451 746.261598,470.589148 746.301776,470.575755 C746.315169,470.441826 746.234813,470.234238 746.060705,469.952987 C745.960258,469.785575 745.903339,469.688478 745.889946,469.661692 C745.869857,469.62821 745.851442,469.576313 745.834701,469.506 C745.817959,469.435687 745.802893,469.387139 745.7895,469.360353 C745.802893,469.360353 745.822982,469.365375 745.849768,469.37542 C745.876553,469.385465 745.905013,469.397183 745.935147,469.410576 C745.965281,469.423969 745.990392,469.437362 746.010482,469.450755 C746.030571,469.464148 746.037268,469.474192 746.030571,469.480889 C746.010482,469.527764 746.017178,469.586357 746.05066,469.65667 C746.084143,469.726983 746.124321,469.788924 746.171196,469.842496 C746.218071,469.896068 746.27499,469.959683 746.341955,470.033344 C746.40892,470.107005 746.449098,470.150532 746.462491,470.163924 C746.50267,470.204103 746.549544,470.269393 746.603116,470.359795 C746.656687,470.450197 746.656687,470.495398 746.603116,470.495398 C746.663384,470.495398 746.730348,470.530554 746.804009,470.600866 C746.87767,470.671179 746.934589,470.736469 746.974768,470.796737 C747.00825,470.850309 747.035035,470.937361 747.055125,471.057898 C747.075214,471.178434 747.091955,471.25879 747.105348,471.298969 C747.118741,471.345844 747.1472,471.391045 747.190727,471.434572 C747.234254,471.478099 747.276107,471.509906 747.316285,471.529996 L747.477,471.610353 C747.543964,471.643835 747.587491,471.667273 747.60758,471.680665 C747.641062,471.694058 747.703004,471.729214 747.793406,471.786134 C747.883808,471.843054 747.955794,471.881558 748.009366,471.901648 C748.07633,471.928433 748.129901,471.941826 748.17008,471.941826 C748.210259,471.941826 748.258807,471.933456 748.315727,471.916715 C748.372647,471.899973 748.417848,471.888255 748.45133,471.881558 C748.551777,471.868165 748.648874,471.918388 748.742625,472.032228 C748.836375,472.146068 748.906687,472.21638 748.953562,472.243165 C749.194512,472.370334 749.378597,472.407191 749.505823,472.353738 C749.49272,472.361643 749.494725,472.386572 749.51104,472.428991 C749.527781,472.472518 749.554566,472.524415 749.591397,472.584683 C749.628228,472.644952 749.658361,472.6935 749.681799,472.730331 C749.705236,472.767161 749.723651,472.795621 749.737044,472.81571 C749.770527,472.855889 749.830794,472.906112 749.917848,472.96638 C750.004902,473.026648 750.065169,473.076871 750.098651,473.117049 C750.13883,473.090264 750.162267,473.06013 750.168964,473.026648 C750.148875,473.080219 750.172312,473.147183 750.239276,473.22754 C750.306241,473.307898 750.366508,473.34138 750.42008,473.327987 C750.513831,473.307898 750.560705,473.200756 750.560705,473.006558 C750.353115,473.107005 750.189054,473.046738 750.068518,472.825755 C750.068518,472.819058 750.060147,472.800643 750.043406,472.770509 C750.026665,472.740375 750.013272,472.711916 750.003227,472.68513 C749.993183,472.658344 749.984812,472.629884 749.978116,472.59975 C749.971419,472.569616 749.971419,472.544505 749.978116,472.524415 C749.984812,472.504326 750.001553,472.494282 750.028339,472.494282 C750.088607,472.494282 750.122089,472.482563 750.128785,472.459125 C750.135482,472.435688 750.128785,472.393835 750.108696,472.333567 C750.088607,472.273299 750.075214,472.229773 750.068518,472.202987 C750.061821,472.149415 750.024991,472.082452 749.958026,472.002094 C749.891062,471.921737 749.850884,471.871514 749.837491,471.851424 C749.804008,471.911693 749.750438,471.938478 749.676776,471.931782 C749.603123,471.925086 749.549556,471.894958 749.516073,471.841397 C749.515691,471.849428 749.510675,471.867585 749.500995,471.896625 C749.490951,471.926759 749.485928,471.948523 749.485928,471.961915 C749.398874,471.961915 749.348652,471.958567 749.335259,471.951871 C749.341955,471.931781 749.350326,471.873188 749.36037,471.77609 C749.370415,471.678991 749.382134,471.603657 749.395526,471.550085 C749.402223,471.523299 749.420638,471.483121 749.450772,471.429549 C749.480906,471.375978 749.506017,471.327429 749.526107,471.283902 C749.546196,471.240375 749.559589,471.198523 749.566285,471.158344 C749.572982,471.118165 749.557915,471.086358 749.521084,471.06292 C749.484254,471.039482 749.425661,471.031112 749.345303,471.037808 C749.21807,471.044505 749.131018,471.111468 749.084143,471.238701 C749.077446,471.258791 749.067402,471.293946 749.054009,471.34417 C749.040616,471.394393 749.023875,471.432898 749.003785,471.459683 C748.983696,471.486469 748.953562,471.509906 748.913384,471.529996 C748.866508,471.550085 748.786152,471.556782 748.672312,471.550085 C748.558472,471.543389 748.478116,471.526648 748.431241,471.499862 C748.344187,471.44629 748.268853,471.349193 748.205236,471.208567 C748.14162,471.067942 748.109812,470.944059 748.109812,470.836915 C748.109812,470.769951 748.118183,470.681224 748.134924,470.570732 C748.151665,470.460241 748.161709,470.376536 748.165058,470.319616 C748.168406,470.262696 748.149991,470.180666 748.109812,470.073523 C748.129902,470.06013 748.160035,470.028322 748.200214,469.978099 C748.240393,469.927875 748.273875,469.892719 748.30066,469.87263 C748.314053,469.865933 748.32912,469.860911 748.345861,469.857563 C748.362602,469.854215 748.377669,469.854215 748.391062,469.857563 C748.404455,469.860911 748.417848,469.855889 748.431241,469.842496 C748.444634,469.829103 748.454678,469.809014 748.461375,469.782228 C748.454678,469.775532 748.441285,469.765487 748.421196,469.752094 C748.401107,469.732005 748.387714,469.72196 748.381018,469.72196 C748.427893,469.74205 748.523316,469.737027 748.66729,469.706893 C748.811264,469.676759 748.903339,469.681781 748.943518,469.72196 C749.043964,469.795621 749.117624,469.788925 749.1645,469.701871 C749.1645,469.695174 749.156129,469.663367 749.139388,469.606447 C749.122647,469.549527 749.120973,469.504326 749.134366,469.470844 C749.167848,469.651649 749.264945,469.681782 749.42566,469.561246 C749.44575,469.581335 749.497647,469.598076 749.581352,469.611469 C749.665058,469.624862 749.723651,469.641603 749.757134,469.661692 C749.777223,469.675085 749.80066,469.6935 749.827446,469.716938 C749.854232,469.740375 749.872647,469.755442 749.882692,469.762139 C749.892736,469.768835 749.909477,469.767161 749.932915,469.757116 C749.956352,469.747072 749.984812,469.725309 750.018294,469.691826 C750.085259,469.785577 750.125437,469.865933 750.13883,469.932898 C750.212491,470.200756 750.276107,470.348076 750.329678,470.374862 C750.376553,470.394951 750.413383,470.401648 750.440169,470.394951 C750.466955,470.388255 750.482022,470.356447 750.48537,470.299527 C750.488718,470.242607 750.488718,470.195733 750.48537,470.158902 C750.482022,470.122072 750.477,470.080219 750.470303,470.033344 L750.460259,469.952987 L750.460259,469.772183 L750.450214,469.691826 C750.349767,469.671737 750.287826,469.631559 750.264388,469.57129 C750.24095,469.511022 750.245973,469.449081 750.279455,469.385465 C750.312937,469.321848 750.36316,469.259907 750.430125,469.199639 C750.436821,469.192942 750.463607,469.181224 750.510482,469.164482 C750.557357,469.147741 750.609254,469.125978 750.666174,469.099192 C750.723094,469.072406 750.764946,469.045621 750.791732,469.018835 C750.932358,468.891602 750.98258,468.774416 750.942401,468.667273 C750.989277,468.667273 751.026107,468.637139 751.052893,468.576871 C751.046196,468.576871 751.029455,468.566826 751.002669,468.546737 C750.975883,468.526648 750.950772,468.509907 750.927334,468.496514 C750.903897,468.483121 750.88883,468.476424 750.882134,468.476424 C750.942402,468.442942 750.949098,468.389371 750.902223,468.31571 C750.935705,468.295621 750.960817,468.258791 750.977558,468.205219 C750.994299,468.151647 751.01941,468.118166 751.052893,468.104773 C751.113161,468.18513 751.183472,468.191827 751.26383,468.124862 C751.317402,468.07129 751.32075,468.017719 751.273875,467.964148 C751.307357,467.917272 751.375995,467.882117 751.47979,467.858679 C751.583585,467.835241 751.645526,467.803434 751.665616,467.763255 C751.712491,467.776648 751.739276,467.769951 751.745973,467.743165 C751.752669,467.71638 751.756018,467.676201 751.756018,467.62263 C751.756018,467.569058 751.766062,467.52888 751.786151,467.502094 C751.812937,467.468612 751.86316,467.438478 751.936821,467.411692 C752.010482,467.384906 752.054009,467.368166 752.067401,467.361469 L752.23816,467.250978 C752.25825,467.224192 752.25825,467.210799 752.23816,467.210799 C752.358697,467.224192 752.46249,467.187362 752.549544,467.100308 C752.616509,467.026647 752.59642,466.959684 752.489276,466.899415 C752.509366,466.859237 752.499321,466.827429 752.459143,466.803991 C752.418964,466.780554 752.368741,466.762139 752.308473,466.748746 C752.328562,466.742049 752.367066,466.740375 752.423986,466.743724 C752.480906,466.747072 752.516062,466.742049 752.529455,466.728657 C752.629902,466.661692 752.606465,466.608121 752.459143,466.567942 C752.345303,466.53446 752.201331,466.574638 752.027223,466.688478 C752.01383,466.695174 751.982022,466.726982 751.931799,466.783902 C751.883095,466.8391 751.839114,466.870682 751.799856,466.87865 L751.799811,466.878929 Z M752.019909,465.140683 C752.019008,465.14099 752.018097,465.141297 752.017178,465.141603 C752.017485,465.141501 752.017793,465.141399 752.018103,465.141297 L752.019909,465.140683 Z M751.84965,464.999514 C751.848585,465.000006 751.847508,465.000494 751.846419,465.000978 C751.846441,465.000974 751.846463,465.000971 751.846485,465.000967 L751.84965,464.999514 Z M748.783779,465.302145 C748.783456,465.302205 748.783131,465.302263 748.782803,465.302317 C748.782866,465.302308 748.78293,465.302298 748.782993,465.302289 L748.783779,465.302145 Z M748.93485,464.207484 C748.934403,464.207462 748.933944,464.207451 748.933473,464.207451 C748.933768,464.207485 748.934063,464.207519 748.934358,464.207552 L748.93485,464.207484 Z M749.866735,463.363112 C749.867069,463.363246 749.867366,463.363442 749.867625,463.363701 C749.867288,463.363566 749.866952,463.363432 749.866618,463.363297 L749.866735,463.363112 Z M749.135366,463.471389 C749.13505,463.472322 749.134717,463.473257 749.134366,463.474192 C749.134397,463.474134 749.134428,463.474076 749.134459,463.474018 L749.135366,463.471389 Z M747.426479,463.263058 C747.426578,463.263123 747.426677,463.263189 747.426776,463.263255 C747.425129,463.262019 747.423444,463.260739 747.42172,463.259415 L747.426479,463.263058 Z M749.505823,472.353738 C749.505888,472.353711 749.505953,472.353684 749.506018,472.353657 C749.505677,472.353827 749.505346,472.354009 749.505025,472.354203 L749.505823,472.353738 Z M752.496347,473.014199 C752.497337,473.014998 752.498329,473.0158 752.499321,473.016603 C752.499317,473.016599 752.499313,473.016595 752.499309,473.016591 L752.496347,473.014199 Z M752.496347,473.014199 C752.356995,472.901726 752.237452,472.828867 752.137714,472.795621 C752.104232,472.788924 752.067402,472.770509 752.027223,472.740375 C751.987044,472.710241 751.951888,472.686804 751.921754,472.670063 C751.89162,472.653322 751.858138,472.648299 751.821308,472.654996 C751.784477,472.661692 751.745973,472.68513 751.705794,472.725308 C751.672312,472.758791 751.652223,472.809013 751.645526,472.875978 C751.63883,472.942943 751.632134,472.986469 751.625437,473.006558 C751.578562,472.973076 751.578562,472.914483 751.625437,472.830777 C751.672312,472.747071 751.679009,472.68513 751.645526,472.644951 C751.625437,472.604772 751.590281,472.589706 751.540058,472.59975 C751.489834,472.609795 751.449656,472.624862 751.419522,472.644951 C751.389388,472.665041 751.350884,472.6935 751.304009,472.730331 C751.257133,472.767161 751.227,472.788924 751.213607,472.795621 C751.200214,472.802317 751.171754,472.820732 751.128227,472.850866 C751.0847,472.881 751.056241,472.906112 751.042848,472.926201 C751.022759,472.952987 751.002669,472.993165 750.98258,473.046737 C750.962491,473.100309 750.94575,473.137139 750.932357,473.157228 C750.918964,473.130442 750.88046,473.108679 750.816843,473.091938 C750.757134,473.076225 750.725446,473.059037 750.721779,473.040375 C750.735294,473.10789 750.748446,473.223855 750.761598,473.388255 C750.774991,473.555666 750.791732,473.682897 750.811821,473.769951 C750.858696,473.977542 750.818518,474.138254 750.691285,474.252094 C750.510481,474.419506 750.413384,474.553433 750.399991,474.65388 C750.373205,474.801202 750.413383,474.888255 750.520526,474.91504 C750.520526,474.961916 750.493741,475.030553 750.440169,475.120956 C750.386598,475.211358 750.36316,475.283344 750.369857,475.336915 C750.369857,475.377094 750.376553,475.430665 750.389946,475.49763 C751.769417,475.256557 752.944629,474.623751 753.915616,473.599192 C753.895526,473.579103 753.853674,473.564036 753.790058,473.553991 C753.726441,473.543947 753.684589,473.532228 753.6645,473.518835 C753.543963,473.47196 753.463607,473.445174 753.423428,473.438478 C753.430125,473.391603 753.421754,473.348076 753.398317,473.307898 C753.374879,473.267719 753.348094,473.237585 753.317959,473.217496 C753.287825,473.197406 753.245973,473.170621 753.192401,473.137139 C753.13883,473.103656 753.102,473.080219 753.08191,473.066826 C753.068517,473.053433 753.04508,473.033344 753.011598,473.006558 C752.978116,472.979773 752.954678,472.961358 752.941285,472.951313 C752.927892,472.941268 752.902781,472.926201 752.865951,472.906112 C752.82912,472.886023 752.80066,472.879326 752.780571,472.886023 C752.760482,472.892719 752.727,472.896067 752.680125,472.896067 L752.649991,472.906112 C752.629901,472.912808 752.611486,472.921179 752.594745,472.931224 C752.578004,472.941268 752.559589,472.951313 752.5395,472.961357 C752.51941,472.971402 752.506018,472.981447 752.499321,472.991491 C752.492629,473.00153 752.492625,473.009896 752.499309,473.016591 L752.496347,473.014199 Z M750.721779,473.040375 C750.721539,473.039154 750.721419,473.037926 750.721419,473.036692 C750.72166,473.037897 750.721901,473.039118 750.722142,473.040355 L750.721779,473.040375 Z" id=""></path>
        </g>
    </g>
</svg>
