
<svg width="16px" height="17px" viewBox="0 0 16 17" version="1.1" xmlns="http://www.w3.org/2000/svg" xmlns:xlink="http://www.w3.org/1999/xlink">
    <defs></defs>
    <g id="stories" stroke="none" stroke-width="1" fill="none" fill-rule="evenodd">
        <g id="dashboard" transform="translate(-801.000000, -461.000000)" fill="#FFFFFF">
            <path d="M808.583705,471.178571 C808.583705,471.265625 808.550224,471.342634 808.483259,471.409598 L805.148438,474.74442 L806.594866,476.190848 C806.722099,476.318081 806.785714,476.468749 806.785714,476.642857 C806.785714,476.816965 806.722099,476.967633 806.594866,477.094866 C806.467633,477.222099 806.316965,477.285714 806.142857,477.285714 L801.642857,477.285714 C801.468749,477.285714 801.318081,477.222099 801.190848,477.094866 C801.063615,476.967633 801,476.816965 801,476.642857 L801,472.142857 C801,471.968749 801.063615,471.818081 801.190848,471.690848 C801.318081,471.563615 801.468749,471.5 801.642857,471.5 C801.816965,471.5 801.967633,471.563615 802.094866,471.690848 L803.541295,473.137277 L806.876116,469.802455 C806.943081,469.735491 807.020089,469.702009 807.107143,469.702009 C807.194197,469.702009 807.271205,469.735491 807.33817,469.802455 L808.483259,470.947545 C808.550224,471.014509 808.583705,471.091517 808.583705,471.178571 Z M816.428571,462.5 L816.428571,467 C816.428571,467.174108 816.364956,467.324776 816.237723,467.452009 C816.11049,467.579242 815.959822,467.642857 815.785714,467.642857 C815.611606,467.642857 815.460938,467.579242 815.333705,467.452009 L813.887277,466.00558 L810.552455,469.340402 C810.485491,469.407366 810.408483,469.440848 810.321429,469.440848 C810.234375,469.440848 810.157366,469.407366 810.090402,469.340402 L808.945312,468.195312 C808.878348,468.128348 808.844866,468.05134 808.844866,467.964286 C808.844866,467.877232 808.878348,467.800224 808.945312,467.733259 L812.280134,464.398438 L810.833705,462.952009 C810.706473,462.824776 810.642857,462.674108 810.642857,462.5 C810.642857,462.325892 810.706473,462.175224 810.833705,462.047991 C810.960938,461.920758 811.111606,461.857143 811.285714,461.857143 L815.785714,461.857143 C815.959822,461.857143 816.11049,461.920758 816.237723,462.047991 C816.364956,462.175224 816.428571,462.325892 816.428571,462.5 Z" id="expand-copy"></path>
        </g>
    </g>
</svg>
