
<svg width="30px" height="27px" viewBox="0 0 30 27" version="1.1" xmlns="http://www.w3.org/2000/svg" xmlns:xlink="http://www.w3.org/1999/xlink">
    <defs></defs>
    <g id="stories" stroke="none" stroke-width="1" fill="none" fill-rule="evenodd">
        <g id="app-drawer-2" transform="translate(-155.000000, -140.000000)" fill="#FFFFFF" fill-rule="nonzero">
            <g id="cases" transform="translate(155.000000, 140.000000)">
                <path d="M29.516129,3.8709677 L21.1935484,3.8709677 L18.6774194,0.19354839 C18.5806452,0.09677419 18.483871,0 18.2903226,0 L11.7096774,0 C11.516129,0 11.4193548,0.09677419 11.3225806,0.19354839 L8.7096774,3.8709677 L0.48387097,3.8709677 C0.19354839,3.8709677 0,4.0645161 0,4.3548387 L0,12.0967742 C0,12.2903226 0.09677419,12.3870968 0.29032258,12.483871 C3.9677419,14.6129032 8.0322581,15.8709677 12.1935484,16.2580645 L12.1935484,17.9032258 C12.1935484,18.1935484 12.3870968,18.3870968 12.6774194,18.3870968 L17.3225806,18.3870968 C17.6129032,18.3870968 17.8064516,18.1935484 17.8064516,17.9032258 L17.8064516,16.2580645 C23.0322581,15.7741935 27.1935484,13.9354839 29.7096774,12.483871 C29.9032258,12.3870968 30,12.1935484 30,12.0967742 L30,4.3548387 C30,4.0645161 29.8064516,3.8709677 29.516129,3.8709677 Z M12,0.96774194 L18.0967742,0.96774194 L20.1290323,3.8709677 L9.8709677,3.8709677 L12,0.96774194 Z M16.8387097,17.4193548 L13.1612903,17.4193548 L13.1612903,14.516129 L16.8387097,14.516129 L16.8387097,17.4193548 Z M29.0322581,11.8064516 C26.516129,13.1612903 22.7419355,14.8064516 17.8064516,15.2903226 L17.8064516,14.0322581 C17.8064516,13.7419355 17.6129032,13.5483871 17.3225806,13.5483871 L12.6774194,13.5483871 C12.3870968,13.5483871 12.1935484,13.7419355 12.1935484,14.0322581 L12.1935484,15.2903226 C8.3225806,14.9032258 4.4516129,13.7419355 0.96774194,11.8064516 L0.96774194,4.8387097 L29.0322581,4.8387097 L29.0322581,11.8064516 Z M29.0322581,25.1612903 L29.0322581,14.516129 L30,14.516129 L30,25.6451613 C30,25.9354839 29.8064516,26.1290323 29.516129,26.1290323 L0.48387097,26.1290323 C0.19354839,26.1290323 0,25.9354839 0,25.6451613 L0,14.516129 L0.96774194,14.516129 L0.96774194,25.1612903 L29.0322581,25.1612903 Z" id="path-1"></path>
            </g>
        </g>
    </g>
</svg>
