
<svg width="26px" height="19px" viewBox="0 0 26 19" version="1.1" xmlns="http://www.w3.org/2000/svg" xmlns:xlink="http://www.w3.org/1999/xlink">
    <defs></defs>
    <g id="Symbols" stroke="none" stroke-width="1" fill="none" fill-rule="evenodd">
        <g id="app-header" transform="translate(-28.000000, -25.000000)" fill-rule="nonzero" fill="#B6C3CC">
            <g id="Tree">
                <g transform="translate(28.000000, 23.500000)">
                    <g id="icon" transform="translate(0.000000, 1.000000)">
                        <path d="M0,5.5 L0,0.5 L5,0.5 L5,5.5 L0,5.5 Z M1,4.5 L4,4.5 L4,1.5 L1,1.5 L1,4.5 Z M5,10.5 L5,9.5 C5,8.3954305 5.8954305,7.5 7,7.5 L8,7.5 C9.1045695,7.5 10,8.3954305 10,9.5 L10,10.5 C10,11.6045695 9.1045695,12.5 8,12.5 L7,12.5 C5.8954305,12.5 5,11.6045695 5,10.5 Z M7,11.5 L8,11.5 C8.55228475,11.5 9,11.0522847 9,10.5 L9,9.5 C9,8.94771525 8.55228475,8.5 8,8.5 L7,8.5 C6.44771525,8.5 6,8.94771525 6,9.5 L6,10.5 C6,11.0522847 6.44771525,11.5 7,11.5 Z M5,17.5 L5,16.5 C5,15.3954305 5.8954305,14.5 7,14.5 L8,14.5 C9.1045695,14.5 10,15.3954305 10,16.5 L10,17.5 C10,18.6045695 9.1045695,19.5 8,19.5 L7,19.5 C5.8954305,19.5 5,18.6045695 5,17.5 Z M7,18.5 L8,18.5 C8.55228475,18.5 9,18.0522847 9,17.5 L9,16.5 C9,15.9477153 8.55228475,15.5 8,15.5 L7,15.5 C6.44771525,15.5 6,15.9477153 6,16.5 L6,17.5 C6,18.0522847 6.44771525,18.5 7,18.5 Z M8,3.5 L8,2.5 L21,2.5 L21,3.5 L8,3.5 Z M13,10.5 L13,9.5 L26,9.5 L26,10.5 L13,10.5 Z M13,17.5 L13,16.5 L26,16.5 L26,17.5 L13,17.5 Z" id="Combined-Shape"></path>
                    </g>
                </g>
            </g>
        </g>
    </g>
</svg>
