
<svg width="3px" height="15px" viewBox="0 0 3 15" version="1.1" xmlns="http://www.w3.org/2000/svg" xmlns:xlink="http://www.w3.org/1999/xlink">
    <defs></defs>
    <g id="stories" stroke="none" stroke-width="1" fill="none" fill-rule="evenodd">
        <g id="all-analytics" transform="translate(-740.000000, -258.000000)" fill="#00CCFF">
            <g id="content" transform="translate(0.000000, 130.000000)">
                <g id="widget" transform="translate(0.000000, 30.000000)">
                    <g id="table" transform="translate(30.000000, 45.000000)">
                        <g id="tbody" transform="translate(0.000000, 25.000000)">
                            <g id="actions" transform="translate(585.000000, 14.000000)">
                                <g id="overflow" transform="translate(125.000000, 14.000000)">
                                    <path d="M1.5,3 C0.671572875,3 0,2.32842712 0,1.5 C0,0.671572875 0.671572875,0 1.5,0 C2.32842712,0 3,0.671572875 3,1.5 C3,2.32842712 2.32842712,3 1.5,3 Z M1.5,9 C0.671572875,9 0,8.32842712 0,7.5 C0,6.67157288 0.671572875,6 1.5,6 C2.32842712,6 3,6.67157288 3,7.5 C3,8.32842712 2.32842712,9 1.5,9 Z M1.5,15 C0.671572875,15 0,14.3284271 0,13.5 C0,12.6715729 0.671572875,12 1.5,12 C2.32842712,12 3,12.6715729 3,13.5 C3,14.3284271 2.32842712,15 1.5,15 Z"></path>
                                </g>
                            </g>
                        </g>
                    </g>
                </g>
            </g>
        </g>
    </g>
</svg>
