
<svg width="23px" height="22px" viewBox="0 0 23 22" version="1.1" xmlns="http://www.w3.org/2000/svg" xmlns:xlink="http://www.w3.org/1999/xlink">
    <defs></defs>
    <g id="stories" stroke="none" stroke-width="1" fill="none" fill-rule="evenodd" stroke-linejoin="round">
        <g id="all-analytics" transform="translate(-1164.000000, -24.000000)" stroke="#B6C3CC">
            <g id="app-header">
                <g id="notification" transform="translate(1114.000000, 24.000000)">
                    <path d="M51.4230769,16.5 C53.0830769,16.5 54.4230769,15.16 54.4230769,13.5 L54.4230769,10.31 C54.4230769,7.01 56.4730769,4.04 59.4230769,2.95 C59.4530769,1.59 60.5630769,0.5 61.9230769,0.5 C63.2830769,0.5 64.3930769,1.59 64.4230769,2.95 C67.3730769,4.04 69.4230769,7.01 69.4230769,10.31 L69.4230769,13.5 C69.4230769,15.16 70.7630769,16.5 72.4230769,16.5 L51.4230769,16.5 Z M58.4230769,18 L65.4230769,18 C65.4230769,19.93 63.8530769,21.5 61.9230769,21.5 C59.9930769,21.5 58.4230769,19.93 58.4230769,18 Z M50.9230769,16.5 L72.9230769,16.5 L50.9230769,16.5 Z" id="notification-icon"></path>
                </g>
            </g>
        </g>
    </g>
</svg>
