
<svg width="30px" height="28px" viewBox="0 0 30 28" version="1.1" xmlns="http://www.w3.org/2000/svg" xmlns:xlink="http://www.w3.org/1999/xlink">
    <defs></defs>
    <g id="stories" stroke="none" stroke-width="1" fill="none" fill-rule="evenodd">
        <g id="app-drawer-2" transform="translate(-57.000000, -141.000000)" fill="#FFFFFF" fill-rule="nonzero">
            <g id="alert" transform="translate(57.000000, 141.000000)">
                <path d="M16.40625,19.6875 L13.59375,19.6875 C13.3125,19.6875 13.125,19.875 13.125,20.15625 L13.125,22.96875 C13.125,23.25 13.3125,23.4375 13.59375,23.4375 L16.40625,23.4375 C16.6875,23.4375 16.875,23.25 16.875,22.96875 L16.875,20.15625 C16.875,19.875 16.6875,19.6875 16.40625,19.6875 Z M15.9375,22.5 L14.0625,22.5 L14.0625,20.625 L15.9375,20.625 L15.9375,22.5 Z M17.71875,10.5 C17.625,10.40625 17.53125,10.3125 17.34375,10.3125 L12.65625,10.3125 C12.5625,10.3125 12.375,10.40625 12.28125,10.5 C12.1875,10.59375 12.1875,10.6875 12.1875,10.78125 L12.9375,18.28125 C12.9375,18.5625 13.125,18.75 13.40625,18.75 L16.5,18.75 C16.6875,18.75 16.96875,18.5625 16.96875,18.28125 L17.71875,10.78125 C17.8125,10.6875 17.8125,10.59375 17.71875,10.5 Z M16.125,17.8125 L13.875,17.8125 L13.125,11.25 L16.875,11.25 L16.125,17.8125 Z M29.71875,24.1875 L16.6875,1.03125 C16.40625,0.375 15.75,0 15,0 C14.25,0 13.59375,0.375 13.3125,1.03125 L0.28125,24.1875 C-0.09375,24.84375 -0.09375,25.59375 0.28125,26.25 C0.65625,26.90625 1.3125,27.1875 1.96875,27.1875 L28.03125,27.1875 C28.78125,27.1875 29.34375,26.8125 29.71875,26.25 C30.09375,25.59375 30.09375,24.84375 29.71875,24.1875 Z M28.875,25.78125 C28.6875,26.0625 28.3125,26.25 27.9375,26.25 L1.96875,26.25 C1.59375,26.25 1.21875,26.0625 1.03125,25.78125 C0.84375,25.40625 0.84375,25.03125 1.03125,24.65625 L14.0625,1.5 C14.25,1.125 14.625,0.9375 15,0.9375 C15.375,0.9375 15.75,1.125 15.9375,1.5 L28.96875,24.65625 C29.0625,24.9375 29.0625,25.40625 28.875,25.78125 Z" id="path-1"></path>
            </g>
        </g>
    </g>
</svg>
