
<svg width="18px" height="15px" viewBox="0 0 18 15" version="1.1" xmlns="http://www.w3.org/2000/svg" xmlns:xlink="http://www.w3.org/1999/xlink">
    <defs></defs>
    <g id="stories" stroke="none" stroke-width="1" fill="none" fill-rule="evenodd">
        <g id="dashboard-(data-table)" transform="translate(-769.000000, -462.000000)" fill="#8BD6FF">
            <path d="M772.857143,474.214286 C772.857143,474.750003 772.669645,475.205355 772.294643,475.580357 C771.919641,475.955359 771.464288,476.142857 770.928571,476.142857 C770.392854,476.142857 769.937502,475.955359 769.5625,475.580357 C769.187498,475.205355 769,474.750003 769,474.214286 C769,473.678569 769.187498,473.223216 769.5625,472.848214 C769.937502,472.473212 770.392854,472.285714 770.928571,472.285714 C771.464288,472.285714 771.919641,472.473212 772.294643,472.848214 C772.669645,473.223216 772.857143,473.678569 772.857143,474.214286 Z M772.857143,469.071429 C772.857143,469.607146 772.669645,470.062498 772.294643,470.4375 C771.919641,470.812502 771.464288,471 770.928571,471 C770.392854,471 769.937502,470.812502 769.5625,470.4375 C769.187498,470.062498 769,469.607146 769,469.071429 C769,468.535712 769.187498,468.080359 769.5625,467.705357 C769.937502,467.330355 770.392854,467.142857 770.928571,467.142857 C771.464288,467.142857 771.919641,467.330355 772.294643,467.705357 C772.669645,468.080359 772.857143,468.535712 772.857143,469.071429 Z M787,473.25 L787,475.178571 C787,475.265625 786.968192,475.34096 786.904576,475.404576 C786.84096,475.468192 786.765625,475.5 786.678571,475.5 L774.464286,475.5 C774.377232,475.5 774.301898,475.468192 774.238281,475.404576 C774.174665,475.34096 774.142857,475.265625 774.142857,475.178571 L774.142857,473.25 C774.142857,473.162946 774.174665,473.087612 774.238281,473.023996 C774.301898,472.960379 774.377232,472.928571 774.464286,472.928571 L786.678571,472.928571 C786.765625,472.928571 786.84096,472.960379 786.904576,473.023996 C786.968192,473.087612 787,473.162946 787,473.25 Z M772.857143,463.928571 C772.857143,464.464288 772.669645,464.919641 772.294643,465.294643 C771.919641,465.669645 771.464288,465.857143 770.928571,465.857143 C770.392854,465.857143 769.937502,465.669645 769.5625,465.294643 C769.187498,464.919641 769,464.464288 769,463.928571 C769,463.392854 769.187498,462.937502 769.5625,462.5625 C769.937502,462.187498 770.392854,462 770.928571,462 C771.464288,462 771.919641,462.187498 772.294643,462.5625 C772.669645,462.937502 772.857143,463.392854 772.857143,463.928571 Z M787,468.107143 L787,470.035714 C787,470.122768 786.968192,470.198102 786.904576,470.261719 C786.84096,470.325335 786.765625,470.357143 786.678571,470.357143 L774.464286,470.357143 C774.377232,470.357143 774.301898,470.325335 774.238281,470.261719 C774.174665,470.198102 774.142857,470.122768 774.142857,470.035714 L774.142857,468.107143 C774.142857,468.020089 774.174665,467.944755 774.238281,467.881138 C774.301898,467.817522 774.377232,467.785714 774.464286,467.785714 L786.678571,467.785714 C786.765625,467.785714 786.84096,467.817522 786.904576,467.881138 C786.968192,467.944755 787,468.020089 787,468.107143 Z M787,462.964286 L787,464.892857 C787,464.979911 786.968192,465.055245 786.904576,465.118862 C786.84096,465.182478 786.765625,465.214286 786.678571,465.214286 L774.464286,465.214286 C774.377232,465.214286 774.301898,465.182478 774.238281,465.118862 C774.174665,465.055245 774.142857,464.979911 774.142857,464.892857 L774.142857,462.964286 C774.142857,462.877232 774.174665,462.801898 774.238281,462.738281 C774.301898,462.674665 774.377232,462.642857 774.464286,462.642857 L786.678571,462.642857 C786.765625,462.642857 786.84096,462.674665 786.904576,462.738281 C786.968192,462.801898 787,462.877232 787,462.964286 Z" id=""></path>
        </g>
    </g>
</svg>
