
<svg width="1440px" height="378px" viewBox="0 0 1440 378" version="1.1" xmlns="http://www.w3.org/2000/svg" xmlns:xlink="http://www.w3.org/1999/xlink">
    <defs></defs>
    <g id="page-templates" stroke="none" stroke-width="1" fill="none" fill-rule="evenodd" opacity="0.5" stroke-linecap="square">
        <g id="Component-Index@2x" transform="translate(0.000000, -790.000000)" stroke="#9299A2">
            <g id="&quot;ripples&quot;" transform="translate(708.500000, 671.500000) scale(1, -1) translate(-708.500000, -671.500000) translate(-80.000000, 160.000000)">
                <g id="lower">
                    <g id="Group">
                        <g id="12">
                            <path d="M-11.2153798,262.891854 L1588.78462,262.891854" id="Line-4-Copy-125" transform="translate(788.784620, 262.891854) rotate(10.000000) translate(-788.784620, -262.891854) "></path>
                            <path d="M-11.2153798,260.891854 L1588.78462,260.891854" id="Line-4-Copy-124" transform="translate(788.784620, 260.891854) rotate(10.000000) translate(-788.784620, -260.891854) "></path>
                            <path d="M-11.2153798,258.891854 L1588.78462,258.891854" id="Line-4-Copy-123" transform="translate(788.784620, 258.891854) rotate(10.000000) translate(-788.784620, -258.891854) "></path>
                            <path d="M-11.2153798,256.891854 L1588.78462,256.891854" id="Line-4-Copy-122" transform="translate(788.784620, 256.891854) rotate(10.000000) translate(-788.784620, -256.891854) "></path>
                            <path d="M-11.2153798,254.891854 L1588.78462,254.891854" id="Line-4-Copy-121" transform="translate(788.784620, 254.891854) rotate(10.000000) translate(-788.784620, -254.891854) "></path>
                            <path d="M-11.2153798,252.891854 L1588.78462,252.891854" id="Line-4-Copy-120" transform="translate(788.784620, 252.891854) rotate(10.000000) translate(-788.784620, -252.891854) "></path>
                            <path d="M-11.2153798,250.891854 L1588.78462,250.891854" id="Line-4-Copy-119" transform="translate(788.784620, 250.891854) rotate(10.000000) translate(-788.784620, -250.891854) "></path>
                            <path d="M-11.2153798,248.891854 L1588.78462,248.891854" id="Line-4-Copy-118" transform="translate(788.784620, 248.891854) rotate(10.000000) translate(-788.784620, -248.891854) "></path>
                            <path d="M-11.2153798,246.891854 L1588.78462,246.891854" id="Line-4-Copy-117" transform="translate(788.784620, 246.891854) rotate(10.000000) translate(-788.784620, -246.891854) "></path>
                            <path d="M-11.2153798,244.891854 L1588.78462,244.891854" id="Line-4-Copy-116" transform="translate(788.784620, 244.891854) rotate(10.000000) translate(-788.784620, -244.891854) "></path>
                            <path d="M-11.2153798,242.891854 L1588.78462,242.891854" id="Line-4-Copy-115" transform="translate(788.784620, 242.891854) rotate(10.000000) translate(-788.784620, -242.891854) "></path>
                            <path d="M-11.2153798,240.891854 L1588.78462,240.891854" id="Line-4-Copy-114" transform="translate(788.784620, 240.891854) rotate(10.000000) translate(-788.784620, -240.891854) "></path>
                            <path d="M-11.2153798,238.891854 L1588.78462,238.891854" id="Line-4-Copy-113" transform="translate(788.784620, 238.891854) rotate(10.000000) translate(-788.784620, -238.891854) "></path>
                            <path d="M-11.2153798,236.891854 L1588.78462,236.891854" id="Line-4-Copy-112" transform="translate(788.784620, 236.891854) rotate(10.000000) translate(-788.784620, -236.891854) "></path>
                            <path d="M-11.2153798,234.891854 L1588.78462,234.891854" id="Line-4-Copy-111" transform="translate(788.784620, 234.891854) rotate(10.000000) translate(-788.784620, -234.891854) "></path>
                            <path d="M-11.2153798,232.891854 L1588.78462,232.891854" id="Line-4-Copy-110" transform="translate(788.784620, 232.891854) rotate(10.000000) translate(-788.784620, -232.891854) "></path>
                            <path d="M-11.2153798,230.891854 L1588.78462,230.891854" id="Line-4-Copy-109" transform="translate(788.784620, 230.891854) rotate(10.000000) translate(-788.784620, -230.891854) "></path>
                            <path d="M-11.2153798,228.891854 L1588.78462,228.891854" id="Line-4-Copy-108" transform="translate(788.784620, 228.891854) rotate(10.000000) translate(-788.784620, -228.891854) "></path>
                            <path d="M-11.2153798,226.891854 L1588.78462,226.891854" id="Line-4-Copy-107" transform="translate(788.784620, 226.891854) rotate(10.000000) translate(-788.784620, -226.891854) "></path>
                            <path d="M-11.2153798,224.891854 L1588.78462,224.891854" id="Line-4-Copy-106" transform="translate(788.784620, 224.891854) rotate(10.000000) translate(-788.784620, -224.891854) "></path>
                            <path d="M-11.2153798,222.891854 L1588.78462,222.891854" id="Line-4-Copy-105" transform="translate(788.784620, 222.891854) rotate(10.000000) translate(-788.784620, -222.891854) "></path>
                            <path d="M-11.2153798,220.891854 L1588.78462,220.891854" id="Line-4-Copy-104" transform="translate(788.784620, 220.891854) rotate(10.000000) translate(-788.784620, -220.891854) "></path>
                            <path d="M-11.2153798,218.891854 L1588.78462,218.891854" id="Line-4-Copy-103" transform="translate(788.784620, 218.891854) rotate(10.000000) translate(-788.784620, -218.891854) "></path>
                            <path d="M-11.2153798,216.891854 L1588.78462,216.891854" id="Line-4-Copy-102" transform="translate(788.784620, 216.891854) rotate(10.000000) translate(-788.784620, -216.891854) "></path>
                            <path d="M-11.2153798,214.891854 L1588.78462,214.891854" id="Line-4-Copy-101" transform="translate(788.784620, 214.891854) rotate(10.000000) translate(-788.784620, -214.891854) "></path>
                            <path d="M-11.2153798,212.891854 L1588.78462,212.891854" id="Line-4-Copy-100" transform="translate(788.784620, 212.891854) rotate(10.000000) translate(-788.784620, -212.891854) "></path>
                            <path d="M-11.2153798,210.891854 L1588.78462,210.891854" id="Line-4-Copy-99" transform="translate(788.784620, 210.891854) rotate(10.000000) translate(-788.784620, -210.891854) "></path>
                            <path d="M-11.2153798,208.891854 L1588.78462,208.891854" id="Line-4-Copy-98" transform="translate(788.784620, 208.891854) rotate(10.000000) translate(-788.784620, -208.891854) "></path>
                            <path d="M-11.2153798,206.891854 L1588.78462,206.891854" id="Line-4-Copy-97" transform="translate(788.784620, 206.891854) rotate(10.000000) translate(-788.784620, -206.891854) "></path>
                            <path d="M-11.2153798,204.891854 L1588.78462,204.891854" id="Line-4-Copy-96" transform="translate(788.784620, 204.891854) rotate(10.000000) translate(-788.784620, -204.891854) "></path>
                            <path d="M-11.2153798,202.891854 L1588.78462,202.891854" id="Line-4-Copy-95" transform="translate(788.784620, 202.891854) rotate(10.000000) translate(-788.784620, -202.891854) "></path>
                            <path d="M-11.2153798,200.891854 L1588.78462,200.891854" id="Line-4-Copy-94" transform="translate(788.784620, 200.891854) rotate(10.000000) translate(-788.784620, -200.891854) "></path>
                            <path d="M-11.2153798,198.891854 L1588.78462,198.891854" id="Line-4-Copy-93" transform="translate(788.784620, 198.891854) rotate(10.000000) translate(-788.784620, -198.891854) "></path>
                            <path d="M-11.2153798,196.891854 L1588.78462,196.891854" id="Line-4-Copy-92" transform="translate(788.784620, 196.891854) rotate(10.000000) translate(-788.784620, -196.891854) "></path>
                            <path d="M-11.2153798,194.891854 L1588.78462,194.891854" id="Line-4-Copy-91" transform="translate(788.784620, 194.891854) rotate(10.000000) translate(-788.784620, -194.891854) "></path>
                            <path d="M-11.2153798,192.891854 L1588.78462,192.891854" id="Line-4-Copy-90" transform="translate(788.784620, 192.891854) rotate(10.000000) translate(-788.784620, -192.891854) "></path>
                            <path d="M-11.2153798,190.891854 L1588.78462,190.891854" id="Line-4-Copy-89" transform="translate(788.784620, 190.891854) rotate(10.000000) translate(-788.784620, -190.891854) "></path>
                            <path d="M-11.2153798,188.891854 L1588.78462,188.891854" id="Line-4-Copy-88" transform="translate(788.784620, 188.891854) rotate(10.000000) translate(-788.784620, -188.891854) "></path>
                            <path d="M-11.2153798,186.891854 L1588.78462,186.891854" id="Line-4-Copy-87" transform="translate(788.784620, 186.891854) rotate(10.000000) translate(-788.784620, -186.891854) "></path>
                            <path d="M-11.2153798,184.891854 L1588.78462,184.891854" id="Line-4-Copy-86" transform="translate(788.784620, 184.891854) rotate(10.000000) translate(-788.784620, -184.891854) "></path>
                            <path d="M-11.2153798,182.891854 L1588.78462,182.891854" id="Line-4-Copy-85" transform="translate(788.784620, 182.891854) rotate(10.000000) translate(-788.784620, -182.891854) "></path>
                            <path d="M-11.2153798,180.891854 L1588.78462,180.891854" id="Line-4-Copy-84" transform="translate(788.784620, 180.891854) rotate(10.000000) translate(-788.784620, -180.891854) "></path>
                            <path d="M-11.2153798,178.891854 L1588.78462,178.891854" id="Line-4-Copy-83" transform="translate(788.784620, 178.891854) rotate(10.000000) translate(-788.784620, -178.891854) "></path>
                            <path d="M-11.2153798,176.891854 L1588.78462,176.891854" id="Line-4-Copy-82" transform="translate(788.784620, 176.891854) rotate(10.000000) translate(-788.784620, -176.891854) "></path>
                            <path d="M-11.2153798,174.891854 L1588.78462,174.891854" id="Line-4-Copy-81" transform="translate(788.784620, 174.891854) rotate(10.000000) translate(-788.784620, -174.891854) "></path>
                            <path d="M-11.2153798,172.891854 L1588.78462,172.891854" id="Line-4-Copy-80" transform="translate(788.784620, 172.891854) rotate(10.000000) translate(-788.784620, -172.891854) "></path>
                            <path d="M-11.2153798,170.891854 L1588.78462,170.891854" id="Line-4-Copy-79" transform="translate(788.784620, 170.891854) rotate(10.000000) translate(-788.784620, -170.891854) "></path>
                            <path d="M-11.2153798,168.891854 L1588.78462,168.891854" id="Line-4-Copy-78" transform="translate(788.784620, 168.891854) rotate(10.000000) translate(-788.784620, -168.891854) "></path>
                            <path d="M-11.2153798,166.891854 L1588.78462,166.891854" id="Line-4-Copy-77" transform="translate(788.784620, 166.891854) rotate(10.000000) translate(-788.784620, -166.891854) "></path>
                            <path d="M-11.2153798,164.891854 L1588.78462,164.891854" id="Line-4-Copy-76" transform="translate(788.784620, 164.891854) rotate(10.000000) translate(-788.784620, -164.891854) "></path>
                            <path d="M-11.2153798,162.891854 L1588.78462,162.891854" id="Line-4-Copy-75" transform="translate(788.784620, 162.891854) rotate(10.000000) translate(-788.784620, -162.891854) "></path>
                            <path d="M-11.2153798,160.891854 L1588.78462,160.891854" id="Line-4-Copy-74" transform="translate(788.784620, 160.891854) rotate(10.000000) translate(-788.784620, -160.891854) "></path>
                            <path d="M-11.2153798,158.891854 L1588.78462,158.891854" id="Line-4-Copy-73" transform="translate(788.784620, 158.891854) rotate(10.000000) translate(-788.784620, -158.891854) "></path>
                            <path d="M-11.2153798,156.891854 L1588.78462,156.891854" id="Line-4-Copy-72" transform="translate(788.784620, 156.891854) rotate(10.000000) translate(-788.784620, -156.891854) "></path>
                            <path d="M-11.2153798,154.891854 L1588.78462,154.891854" id="Line-4-Copy-71" transform="translate(788.784620, 154.891854) rotate(10.000000) translate(-788.784620, -154.891854) "></path>
                            <path d="M-11.2153798,152.891854 L1588.78462,152.891854" id="Line-4-Copy-70" transform="translate(788.784620, 152.891854) rotate(10.000000) translate(-788.784620, -152.891854) "></path>
                            <path d="M-11.2153798,150.891854 L1588.78462,150.891854" id="Line-4-Copy-69" transform="translate(788.784620, 150.891854) rotate(10.000000) translate(-788.784620, -150.891854) "></path>
                            <path d="M-11.2153798,148.891854 L1588.78462,148.891854" id="Line-4-Copy-68" transform="translate(788.784620, 148.891854) rotate(10.000000) translate(-788.784620, -148.891854) "></path>
                            <path d="M-11.2153798,146.891854 L1588.78462,146.891854" id="Line-4-Copy-67" transform="translate(788.784620, 146.891854) rotate(10.000000) translate(-788.784620, -146.891854) "></path>
                            <path d="M-11.2153798,144.891854 L1588.78462,144.891854" id="Line-4-Copy-66" transform="translate(788.784620, 144.891854) rotate(10.000000) translate(-788.784620, -144.891854) "></path>
                            <path d="M-11.2153798,142.891854 L1588.78462,142.891854" id="Line-4-Copy-65" transform="translate(788.784620, 142.891854) rotate(10.000000) translate(-788.784620, -142.891854) "></path>
                            <path d="M-11.2153798,140.891854 L1588.78462,140.891854" id="Line-4-Copy-64" transform="translate(788.784620, 140.891854) rotate(10.000000) translate(-788.784620, -140.891854) "></path>
                        </g>
                    </g>
                </g>
            </g>
        </g>
    </g>
</svg>